<?xml version="1.0" encoding="UTF-8" standalone="no"?>
<!-- Created with Inkscape (http://www.inkscape.org/) -->

<svg
   version="1.1"
   id="svg1"
   width="240"
   height="240"
   viewBox="0 0 240 240"
   sodipodi:docname="Bob2.svg"
   inkscape:version="1.3.2 (091e20e, 2023-11-25, custom)"
   xmlns:inkscape="http://www.inkscape.org/namespaces/inkscape"
   xmlns:sodipodi="http://sodipodi.sourceforge.net/DTD/sodipodi-0.dtd"
   xmlns="http://www.w3.org/2000/svg"
   xmlns:svg="http://www.w3.org/2000/svg">
  <defs
     id="defs1" />
  <sodipodi:namedview
     id="namedview1"
     pagecolor="#ffffff"
     bordercolor="#000000"
     borderopacity="0.25"
     inkscape:showpageshadow="2"
     inkscape:pageopacity="0.0"
     inkscape:pagecheckerboard="0"
     inkscape:deskcolor="#d1d1d1"
     inkscape:zoom="3.2791667"
     inkscape:cx="119.84752"
     inkscape:cy="113.29098"
     inkscape:window-width="1920"
     inkscape:window-height="1001"
     inkscape:window-x="-9"
     inkscape:window-y="-9"
     inkscape:window-maximized="1"
     inkscape:current-layer="g1" />
  <g
     inkscape:groupmode="layer"
     inkscape:label="Image"
     id="g1">
    <g
       id="g2"
       transform="translate(1.8297332,-108.25921)">
      <path
         style="fill:#d1d1d1"
         d="M 1.2805457,227 C 1.76899,212.49395 2.7394813,206.82953 6.9344738,194 13.826521,172.92208 23.415973,157.3167 39.163274,141.55251 c 14.782431,-14.79828 26.044701,-22.05138 43.879791,-28.25937 9.990041,-3.4773 18.794585,-5.19948 29.756935,-5.82048 21.97159,-1.24466 49.10465,7.39026 68.05969,21.65954 8.99924,6.7746 23.0754,21.49226 29.43241,30.77375 12.4657,18.20041 21.04918,43.10861 23.38268,67.85363 0.80769,8.565 0.76852,9.91141 -0.32008,11 -1.49811,1.49812 -3.51947,1.59842 -4.8453,0.24042 -0.55385,-0.56728 -1.39704,-5.67335 -1.94859,-11.8 -1.63188,-18.12687 -5.18787,-31.43764 -12.52986,-46.90177 C 202.63142,156.28786 186.90221,139.1323 165.2,127.03922 148.2374,117.58717 131.58291,113.71686 112,114.67615 96.34384,115.44308 85.576612,118.35437 70.8,125.816 49.30762,136.66882 30.689287,156.56892 19.331031,180.82829 12.172927,196.11683 8.7475284,209.10707 7.1045475,227.19514 6.0999901,238.25462 5.4694384,240 2.4785493,240 0.88004967,240 0.85277771,239.70406 1.2805457,227 Z M 85.78412,188.41052 c -5.832926,-1.64071 -8.192286,-2.98366 -12.362808,-7.03694 -4.134261,-4.01804 -6.710985,-10.32522 -5.891731,-14.42148 1.625714,-8.12857 8.528867,-14.87399 17.873619,-17.46521 7.100051,-1.96879 10.075436,-1.87822 17.72947,0.53969 8.31935,2.62808 13.56794,7.3796 15.73081,14.24101 1.37029,4.34708 1.37051,4.71704 0.005,9.04774 -3.68481,11.68958 -19.514879,18.91218 -33.08474,15.09519 z m 15.10998,-6.82335 C 107.51182,179.74896 112.8,174.06934 112.8,168.8 c 0,-3.93723 -2.68238,-7.76423 -7.55235,-10.77511 C 101.58946,155.76321 100.8055,155.6 93.6,155.6 c -7.205502,0 -7.989457,0.16321 -11.647645,2.42489 -9.201594,5.68891 -10.022295,14.53403 -1.906095,20.54297 4.745464,3.51337 14.160416,4.8769 20.84784,3.01931 z M 159.6,183.7293 c -8.18444,-2.71209 -13.80794,-8.0415 -16.07541,-15.23474 -1.35876,-4.31049 -1.35777,-4.68295 0.0241,-9.09456 2.12853,-6.79511 7.83153,-12.26302 15.13555,-14.51162 6.82049,-2.09975 8.60338,-2.10344 15.31079,-0.0317 3.78449,1.16891 6.43581,2.64097 9.00549,5 3.94452,3.62117 7.37915,9.96409 7.39163,13.65053 0.024,7.07383 -6.22719,15.64821 -13.77581,18.89554 -5.08484,2.18744 -12.64085,2.7765 -17.01637,1.32658 z m 15.32141,-8.0639 c 14.76977,-6.87695 8.53755,-25.22757 -8.57796,-25.25758 -9.20476,-0.0161 -16.69856,6.25761 -16.73029,14.00647 -0.0291,7.11612 7.68736,13.17008 16.78684,13.17008 2.965,0 5.74414,-0.62584 8.52141,-1.91897 z"
         id="path8" />
      <path
         style="fill:#adadad"
         d="M 1.2700287,228.6 C 2.699896,195.53077 15.914967,165.63033 39.564837,141.9541 44.864177,136.64885 52.08,130.30045 55.6,127.84653 c 37.352361,-26.03962 84.00396,-26.18606 122,-0.38297 8.4133,5.71347 25.67714,23.24577 31.8936,32.38954 12.7271,18.72029 20.98005,42.30656 23.35884,66.75776 C 233.93445,237.73258 233.58687,240 230.8,240 c -2.34055,0 -2.37244,-0.11726 -3.57916,-13.1609 C 221.03835,160.01144 170.73668,110.69939 112,113.88509 97.459117,114.67375 86.996418,117.39213 73.005799,124.01643 61.534249,129.44799 53.807698,135.00226 43.537308,145.2 22.127524,166.45834 9.3567808,194.65163 6.3936829,227.2 5.2583016,239.67168 5.1654395,240 2.7733127,240 H 0.77710856 Z M 86.174002,187.97779 C 76.334921,185.49495 68,176.69968 68,168.8 c 0,-6.8156 7.190311,-15.29748 15.417992,-18.18749 12.877653,-4.52331 28.465158,0.61864 33.695978,11.11552 2.62872,5.27516 2.63478,8.85663 0.0238,14.09612 -3.82327,7.67231 -11.52908,12.13882 -21.781479,12.62519 -3.385976,0.16063 -7.51802,-0.0516 -9.182319,-0.47155 z m 14.963468,-5.91894 c 10.15967,-3.05761 15.18158,-11.5899 10.92765,-18.56619 -6.38794,-10.47597 -24.672524,-12.22475 -34.020569,-3.25379 -5.707697,5.47745 -5.906883,10.99775 -0.602032,16.68483 5.179015,5.55217 15.137872,7.71045 23.694951,5.13515 z M 160,183.2519 C 150.72361,180.41992 143.2,171.79827 143.2,164 c 0,-6.50307 5.87243,-14.49795 12.97646,-17.66651 5.88125,-2.62316 14.54926,-2.63082 20.40518,-0.018 7.40173,3.3025 13.01836,11.03806 13.01836,17.92965 0,7.12413 -7.18309,15.81451 -15.21596,18.40884 -4.30737,1.39112 -10.88962,1.66475 -14.38404,0.59794 z m 15.77718,-7.13823 c 1.83157,-0.93439 4.34098,-3.0242 5.57647,-4.64401 C 183.2035,169.04438 183.6,167.72593 183.6,164 c 0,-3.72593 -0.3965,-5.04438 -2.24635,-7.46966 -7.40591,-9.70965 -24.75445,-8.86783 -30.77495,1.49332 -4.42944,7.62297 0.1067,16.35983 10.21612,19.67684 3.3537,1.10038 11.38166,0.25012 14.98236,-1.58683 z"
         id="path7" />
      <path
         style="fill:#929292"
         d="M 0.8,238.11617 C 0.8,232.90334 2.6169802,214.87694 3.6743018,209.6 4.3355117,206.3 6.1669646,199.64 7.7441972,194.8 20.316877,156.21865 47.708574,126.88706 82.8,114.42872 c 10.048106,-3.56732 16.655612,-4.75841 29.6,-5.33578 30.86837,-1.37683 58.57649,9.78473 81.61069,32.87494 21.36683,21.4188 34.72836,50.26263 37.94693,81.91688 0.46331,4.55662 0.84238,10.04662 0.84238,12.2 0,3.5512 -0.17094,3.91524 -1.83849,3.91524 -1.77566,0 -1.8708,-0.3565 -2.78387,-10.43174 -1.78256,-19.66967 -6.13143,-35.28353 -14.58594,-52.36826 -6.28328,-12.69714 -10.84377,-19.13953 -21.18076,-29.92104 -9.06934,-9.45935 -16.77702,-15.64015 -25.77062,-20.66548 -26.64656,-14.88924 -55.34689,-17.53021 -83.02344,-7.63973 -9.303577,3.32473 -22.027572,10.255 -28.827124,15.70103 C 25.726195,157.95293 9.1196484,189.88307 5.5241161,229.4 4.5852199,239.719 4.5098188,240 2.6798262,240 1.2389255,240 0.8,239.56014 0.8,238.11617 Z M 83.465964,186.51915 C 71.461218,182.37061 65.583622,170.99104 70.595119,161.6 c 10.667891,-19.99055 49.429911,-13.20653 47.643241,8.33839 -0.65419,7.88864 -7.13906,14.75548 -16.23836,17.19483 -4.862561,1.30356 -13.846248,1.00591 -18.534036,-0.61407 z m 18.223956,-4.09039 c 7.17791,-2.09426 13.49643,-9.82737 12.33824,-15.10053 -1.9664,-8.953 -14.322813,-15.33731 -25.069419,-12.95289 -2.507308,0.55631 -5.513694,1.50056 -6.680859,2.09834 -3.965554,2.03099 -7.690509,6.2595 -8.648663,9.81781 -0.832694,3.09239 -0.736702,3.83398 0.920576,7.11201 4.291355,8.48811 15.829918,12.32518 27.140125,9.02526 z m 53.62669,-1.69678 c -10.19959,-5.0968 -13.95988,-15.11347 -9.2339,-24.59727 C 149.57833,149.11989 157.32168,144.8 166.4,144.8 c 8.97703,0 16.47139,4.12372 20.30916,11.17497 1.96206,3.60494 2.22524,4.84158 1.95007,9.16298 -0.4372,6.86616 -3.95654,11.82118 -10.98202,15.46205 -4.39635,2.27835 -5.7843,2.6 -11.21933,2.6 -5.32883,0 -6.89789,-0.34758 -11.14127,-2.46802 z m 16.61416,-2.78553 c 5.41603,-1.60839 10.94286,-6.56342 12.09554,-10.84417 1.86389,-6.92195 -3.51235,-14.49979 -12.09554,-17.04873 -5.22283,-1.55101 -5.83714,-1.55148 -11.03324,-0.008 -8.26348,2.45399 -13.94029,10.31137 -12.17804,16.85587 1.14686,4.25912 6.10837,8.94088 11.41871,10.77487 5.26205,1.81733 6.48922,1.84548 11.79257,0.27056 z"
         id="path6" />
      <path
         style="fill:#6b6b6b"
         d="m 0.8027337,237.8 c 0.006785,-5.46075 1.8321617,-21.2897 3.251992,-28.2 C 7.5546613,192.56584 15.031379,174.85309 24.875297,160.27493 31.848132,149.94865 46.11453,135.26343 55.6,128.64825 c 37.340063,-26.04104 84.01532,-26.18767 122,-0.38326 8.37328,5.68828 24.88804,22.46675 31.09164,31.58811 9.26227,13.61862 17.41779,33.06704 20.86092,49.7469 1.59303,7.71728 3.24744,21.61749 3.24744,27.28476 0,2.73758 -0.22817,3.11524 -1.88217,3.11524 -1.82315,0 -1.89934,-0.26543 -2.42936,-8.46355 -1.46023,-22.58613 -8.22604,-44.99582 -18.99412,-62.91223 -5.20133,-8.6542 -9.37742,-14.03071 -17.41808,-22.42492 C 170.21745,123.37935 141.46018,111.48726 112,113.08509 97.459117,113.87375 86.996418,116.59213 73.005799,123.21643 61.431604,128.69659 53.795375,134.21434 43.135473,144.8 20.928609,166.85219 8.3739739,194.79276 5.4813203,228.6 4.5311707,239.70466 4.4578957,240 2.6529502,240 1.1642206,240 0.80053734,239.56756 0.8027337,237.8 Z M 86.187574,187.18061 c -12.627149,-3.18893 -20.131573,-14.25304 -16.147029,-23.8063 3.317293,-7.95348 13.266925,-13.73822 23.675187,-13.76481 5.073654,-0.013 13.194658,2.62099 17.229388,5.58817 3.90248,2.86992 7.45488,9.3517 7.45488,13.60233 0,3.82842 -3.53463,10.76362 -6.72675,13.19837 -6.3761,4.86329 -17.661831,7.15812 -25.485676,5.18224 z m 15.077406,-4.35523 c 9.99906,-2.9694 15.59107,-11.75536 11.956,-18.78481 -1.8214,-3.5222 -7.52899,-7.95127 -11.93124,-9.25859 -8.923706,-2.65006 -17.618756,-0.79004 -23.672551,5.06395 -6.259424,6.05284 -6.429092,11.29447 -0.566446,17.49944 5.657657,5.98801 15.217917,8.15163 24.214237,5.48001 z M 160,182.4519 C 150.88345,179.66872 144,171.73042 144,164 c 0,-3.60272 1.94078,-8.16188 4.91067,-11.53586 8.47362,-9.62654 26.13862,-9.82341 34.66446,-0.38632 7.43451,8.22911 6.81993,17.96542 -1.60197,25.37867 -5.4866,4.8295 -15.24772,7.04861 -21.97316,4.99541 z m 16.06021,-5.7543 c 1.86822,-1.04368 4.50894,-3.28102 5.86828,-4.97186 C 184.05463,169.08108 184.4,168.00149 184.4,164 c 0,-4.00149 -0.34537,-5.08108 -2.47151,-7.72574 -4.0809,-5.07614 -8.48288,-7.07703 -15.52849,-7.05838 -4.2661,0.0113 -6.80915,0.44291 -8.8,1.49358 -13.50411,7.12678 -12.3074,21.98292 2.20726,27.40127 4.31825,1.61201 12.03959,0.94067 16.25295,-1.41313 z"
         id="path5" />
      <path
         style="fill:#505050"
         d="m 0.8,237.3951 c 0,-5.07414 2.3786168,-22.84256 3.9985092,-29.86911 3.8738715,-16.80358 10.4258568,-32.01165 19.9613738,-46.33314 6.891595,-10.35056 22.5725,-26.45886 32.040117,-32.91339 7.173162,-4.8903 18.216889,-10.52758 26.213064,-13.38048 21.200996,-7.56417 46.372876,-7.56417 67.573876,0 7.80362,2.78421 18.72926,8.33167 26.13872,13.27187 8.57219,5.71544 25.7847,23.21126 32.07782,32.60581 12.60177,18.8123 20.68244,41.95226 23.15535,66.3081 C 233.21771,239.48358 233.17137,240 230.8,240 c -1.90069,0 -2.00033,-0.22842 -2.00656,-4.6 -0.0266,-18.64261 -5.37367,-39.98025 -14.78499,-59 C 200.83514,149.77747 179.32852,129.74873 152.8,119.3976 140.03061,114.41514 133.167,113.22222 117.2,113.21022 98.017287,113.1958 88.649923,115.3135 71.6,123.51911 49.971221,133.92837 30.931551,153.46069 19.273067,177.2 14.26252,187.40261 9.6327802,200.55035 7.5894937,210.37954 c -0.6836626,3.28874 -1.6678498,11.29874 -2.1870826,17.8 C 4.4835041,239.68507 4.4096162,240 2.6291756,240 1.0981175,240 0.8,239.57546 0.8,237.3951 Z m 86,-50.46746 c -7.142053,-1.83978 -12.247065,-5.41667 -15.393488,-10.78563 -5.99533,-10.23026 1.493932,-21.95463 16.245599,-25.43234 5.67833,-1.33867 6.220632,-1.33792 11.96603,0.0166 19.221059,4.53137 24.554619,22.2646 9.700399,32.25222 -6.3569,4.27423 -15.22158,5.82887 -22.51854,3.94919 z m 15.64448,-4.14333 c 7.33151,-2.58671 11.9474,-7.92535 11.95253,-13.82404 0.004,-4.39578 -1.54794,-7.35335 -5.50067,-10.48397 C 104.58644,155.0628 99.997832,153.6 93.6,153.6 c -21.984106,0 -28.848374,21.91577 -9.127417,29.1414 4.183623,1.53285 13.684658,1.55553 17.971897,0.0429 z M 160.4,182.08094 c -7.83818,-2.47889 -13.92537,-8.1618 -15.51822,-14.48758 -3.11797,-12.3826 11.90715,-25.21475 25.71822,-21.96454 6.09052,1.4333 9.58541,3.42745 13.19635,7.52969 3.62669,4.12014 5.43983,9.38789 4.59868,13.36062 -1.39804,6.60285 -8.15179,13.32837 -15.43704,15.37251 -5.46319,1.53289 -8.18009,1.57385 -12.55799,0.1893 z m 15.3778,-4.92005 c 2.25057,-1.1215 5.11126,-3.3715 6.35708,-5 C 184.08571,169.61083 184.4,168.47848 184.4,164 c 0,-4.47848 -0.31429,-5.61083 -2.26512,-8.16089 -7.52084,-9.831 -25.31772,-9.34075 -31.88605,0.87835 -2.04822,3.18664 -2.32672,4.28087 -2.06819,8.12576 0.57321,8.52459 7.97451,14.35678 18.21936,14.35678 4.06168,0 6.23352,-0.47224 9.3778,-2.03911 z"
         id="path4" />
      <path
         style="fill:#2c2c2c"
         d="m 0.8,236 c 0,-2.2 0.3068641,-4 0.6819202,-4 0.3750561,0 0.9211895,-3.33 1.2136297,-7.4 C 4.2211922,203.36707 12.812155,179.32111 25.677131,160.27493 32.633579,149.97614 46.177073,136.02441 55.6,129.4501 c 37.326733,-26.04258 84.0277,-26.1894 122,-0.38356 8.33054,5.66141 24.10005,21.68967 30.28956,30.78656 12.72561,18.70319 21.08468,42.59293 23.28489,66.5469 0.46477,5.06 1.01165,10.19 1.21529,11.4 0.3118,1.85264 0.0892,2.1993 -1.40974,2.19553 -1.70943,-0.004 -1.7849,-0.3135 -1.90358,-7.8 -0.38951,-24.57152 -10.87435,-54.53595 -26.0721,-74.51098 -5.21061,-6.84851 -17.03076,-18.82938 -23.34176,-23.65913 C 159.59972,118.6715 135.71938,110.99863 112,112.28509 97.459117,113.07375 86.996418,115.79213 73.005799,122.41643 61.32752,127.94587 53.779219,133.4271 42.733802,144.39854 20.529234,166.4544 7.9828272,193.76582 4.7498024,227.08335 c -0.4847802,4.99584 -0.6649462,9.94584 -0.4003688,11 C 4.761618,239.72562 4.5419888,240 2.8152416,240 0.93028501,240 0.8,239.7414 0.8,236 Z m 85.387574,-49.61939 c -12.312142,-3.10937 -19.287846,-13.56775 -15.345136,-23.0063 4.323096,-10.34917 18.517041,-15.49468 31.551542,-11.43789 7.04127,2.19149 10.7963,5.06666 13.29967,10.18338 1.65951,3.39191 2.0235,5.08694 1.703,7.93044 -1.07207,9.5114 -9.78752,16.20632 -21.8523,16.78621 -3.489392,0.16772 -7.699942,-0.0374 -9.356776,-0.45584 z m 14.963096,-2.72573 C 108.9418,181.31009 115.2,174.71027 115.2,168.83864 115.2,160.77228 104.46335,152.8 93.6,152.8 c -11.043174,0 -21.610571,8.05065 -21.595901,16.45258 0.0023,1.29108 0.812254,3.65664 1.8,5.25679 5.211549,8.44276 16.802015,12.31895 27.346571,9.14551 z m 57.9352,-2.3662 c -7.40425,-2.64523 -11.9307,-7.13049 -13.61255,-13.48868 -2.04561,-7.73334 1.88075,-15.22947 10.16143,-19.4 4.05342,-2.04149 5.66152,-2.39629 10.76525,-2.37515 19.48581,0.0807 28.85052,19.30522 15.12642,31.05253 -5.59207,4.78661 -15.58237,6.66143 -22.44055,4.2113 z m 16.6517,-3.5548 c 1.80978,-0.92328 4.58387,-3.18969 6.16464,-5.03647 4.87298,-5.69298 4.87298,-11.70184 0,-17.39482 -4.37996,-5.11701 -8.32804,-6.86551 -15.50221,-6.86551 -8.60014,0 -14.30832,3.39219 -17.99777,10.69549 -3.52003,6.96794 1.73628,16.18788 11.24403,19.72281 4.21349,1.56655 11.86802,1.03306 16.09131,-1.1215 z"
         id="path3" />
      <path
         style="fill:#0e0e0e"
         d="m 0.81225022,235.8 c 0.007435,-2.54918 0.27407228,-3.78713 0.67837588,-3.14958 0.3993999,0.62982 0.8804486,-1.93283 1.2013795,-6.4 C 4.2292469,204.85292 13.099797,179.6984 25.676031,161.07386 32.653468,150.74074 46.925585,136.05271 56.4,129.45452 c 16.294589,-11.3479 36.188543,-18.25815 56.30268,-19.55699 20.98554,-1.3551 48.60894,7.52128 67.37921,21.65134 8.86724,6.67517 21.46127,19.88737 27.85452,29.22178 12.31217,17.97624 20.94739,42.92073 23.27328,67.22935 0.48414,5.06 1.06429,9.83 1.2892,10.6 0.30638,1.04892 -0.056,1.3989 -1.44498,1.39562 -1.81629,-0.004 -1.85618,-0.1788 -1.96569,-8.6 -0.26258,-20.19057 -6.69491,-42.54065 -17.8586,-62.05226 -10.24996,-17.91462 -26.83587,-34.40927 -44.5566,-44.31145 C 148.83322,115.06319 132.8782,111.33849 112,112.26846 95.657542,112.9964 85.068776,115.80684 70,123.416 59.452059,128.7423 51.903581,134.3713 41.943881,144.33782 24.702725,161.59078 12.4864,184.15229 7.2562933,208.4 5.401281,217.00017 3.640234,234.40117 4.294039,237.67019 4.7082446,239.74122 4.5400765,240 2.78,240 0.92320632,240 0.80076227,239.73865 0.81225022,235.8 Z M 86.58412,186.00714 c -8.434103,-2.36561 -13.622236,-6.69832 -15.772387,-13.17181 -1.248524,-3.75896 -1.249857,-4.30769 -0.01947,-8.01205 1.723119,-5.18782 7.693772,-10.70224 13.485457,-12.45499 7.520196,-2.27585 10.776902,-2.28162 17.83243,-0.0316 7.97891,2.54452 12.21637,6.22062 14.25883,12.3699 1.2796,3.8525 1.27954,4.33443 -9.6e-4,8.18965 -0.80303,2.4177 -2.59477,5.33048 -4.37245,7.10816 -5.61046,5.61046 -17.118187,8.32882 -25.411454,6.00271 z m 16.05749,-2.36229 c 10.50175,-3.7459 15.37793,-13.2103 10.90576,-21.16747 -1.84903,-3.2899 -7.75744,-7.67573 -11.96676,-8.88294 C 100.05709,153.1575 96.46581,152.8 93.6,152.8 c -6.561715,0 -9.769918,0.91962 -14.522698,4.1629 -11.72294,7.99968 -8.207731,22.61041 6.517519,27.08963 3.304355,1.00514 13.788865,0.7544 17.046789,-0.40768 z M 160.4,181.32795 c -7.97655,-2.63983 -12.2877,-6.6746 -14.42342,-13.49874 -1.27645,-4.07859 -1.26277,-4.39082 0.38413,-8.76703 2.27521,-6.04577 6.35575,-9.6779 13.273,-11.81442 6.57725,-2.03151 6.9543,-2.03182 13.49556,-0.0114 6.41754,1.98218 10.46341,5.3329 12.98968,10.75786 2.13261,4.57958 2.2458,5.80276 0.94024,10.16035 -2.88831,9.64031 -16.70504,16.46774 -26.65919,13.17342 z M 176.05105,177.8 c 2.64354,-1.34067 5.35567,-3.55234 6.94345,-5.66219 2.24854,-2.98787 2.6055,-4.10276 2.6055,-8.13781 0,-4.03505 -0.35696,-5.14994 -2.6055,-8.13781 -3.77413,-5.01508 -9.78691,-7.86719 -16.53795,-7.84462 -11.31112,0.0378 -19.25655,6.92358 -19.25655,16.68837 0,8.27964 8.80583,15.29406 19.2,15.29406 4.21115,0 6.2128,-0.45629 9.65105,-2.2 z"
         id="path2" />
    </g>
  </g>
</svg>
