<svg version="1.2" xmlns="http://www.w3.org/2000/svg" viewBox="0 0 1202 190" width="1202" height="190">
	<title>isBobWrongLogo</title>
	<rect width="1202" height="190" fill="black"/>
	<style>
		.s0 { fill: #25a834 } 
		.s1 { fill: #608fb6 } 
		.s2 { fill: #ffffff } 
		.s3 { fill: #fffc00 } 
		.s4 { fill: #ff7800 } 
		.s5 { fill: #a200ff } 
		.s6 { fill: #f40ae6 } 
		.s7 { fill: #121cdc } 
		.s8 { fill: #1df212 } 
		.s9 { fill: #f36c09 } 
		.s10 { fill: #eb2b12 } 
		.s11 { fill: #29ffe8 } 
	</style>
	<path id="is Bob     Wrong ?" class="s0" aria-label="is Bob     Wrong ?"  d="m37.5 74.3h37.9v33.7q0 3.7 1.7 4.8 1.8 1.1 4.6 1.1h1.5v20.1h-45.7v-20.1h2.1q2.9 0 4.3-1.8 1.4-1.8 1.4-4v-7.6q0-3.1-2-4.6-2-1.5-4.6-1.5h-1.2zm6.9-13.4q0-4.6 3.5-7.9 3.6-3.3 10.2-3.3 6.6 0 10.2 3.3 3.6 3.3 3.6 7.9 0 4.8-3.6 8.1-3.6 3.3-10.2 3.3-6.6 0-10.2-3.3-3.5-3.3-3.5-8.1z"/>
	<path id="is Bob     Wrong ?" class="s1" aria-label="is Bob     Wrong ?"  d="m150.2 72.8v21.3h-14.9q-1.6-3.9-4.9-6.2-3.3-2.3-6.9-2.3-2.4 0-3.9 0.9-1.4 0.9-1.4 2.7 0 2.2 2.5 3.3 2.5 1.1 6.3 2 3.7 0.9 8.1 2.1 4.4 1.2 8.2 3.5 3.8 2.2 6.3 6.1 2.4 3.8 2.4 10.1 0 4.9-2.1 8.5-2.2 3.7-6 6-3.7 2.3-8.8 3.5-5.1 1.2-11 1.2-5.8 0-10.9-1.1-5.1-1.2-9.8-3.8l-0.5 3.7h-14.3v-21.7h14.8q2.1 4.3 5.3 6.7 3.3 2.4 7.2 2.4 3 0 4.2-1.1 1.3-1.1 1.3-2.5 0-2.2-2.5-3.4-2.5-1.2-6.1-2.2-3.7-0.9-8.1-2.1-4.4-1.2-8-3.4-3.7-2.2-6.2-6-2.5-3.7-2.5-9.9 0-4.4 2-8 2-3.6 5.7-6.1 3.7-2.5 8.7-3.8 4.9-1.4 10.9-1.4 6.7 0 12 1.6 5.3 1.4 8 3.2l0.5-3.8z"/>
	<path id="is Bob     Wrong ?" class="s2" aria-label="is Bob     Wrong ?"  d=""/>
	<path id="is Bob     Wrong ?" class="s3" aria-label="is Bob     Wrong ?"  d="m277.1 74.1q0 17.3-18 18.9v0.6q9.4 0.2 14.8 5.2 5.5 4.9 5.5 14.2 0 3.9-1 7.7-0.9 3.8-4 6.7-3 2.9-8.8 4.8-5.8 1.8-15.5 1.8h-59.6v-20.1q4.7 0 6.8-1.3 2.1-1.3 2.1-4.8v-27.4q0-3.6-2.1-4.8-2.1-1.3-6.8-1.3v-20.1h63.3q7.5 0 12.1 1.6 4.6 1.7 7.1 4.5 2.5 2.8 3.3 6.4 0.8 3.6 0.8 7.4zm-45.8 39.8h8.1q4.6 0 6.3-1.7 1.7-1.8 1.7-6 0-4.1-1.7-5.9-1.7-1.9-6.3-1.9h-8.1zm0-39.6v14.5h8.2q3.4 0 4.8-2.1 1.6-2.2 1.6-5.2 0-2.9-1.6-5.1-1.4-2.1-4.8-2.1z"/>
	<path id="is Bob     Wrong ?" class="s4" aria-label="is Bob     Wrong ?"  d="m283.8 104q0-7.9 2.8-14 2.7-6 7.8-10 5.2-4 12.4-6.1 7.2-2.1 16.1-2.1 8.9 0 16.1 2.1 7.2 2.1 12.3 6.1 5.1 4 7.8 10 2.9 6.1 2.9 14 0 7.9-2.9 14-2.7 6-7.8 10.1-5.1 4.1-12.3 6.2-7.2 2-16.1 2-8.9 0-16.1-2-7.2-2.1-12.4-6.2-5.1-4.1-7.8-10.1-2.8-6.1-2.8-14zm30.8 0q0 4.6 0.4 7.8 0.5 3.1 1.4 5.1 0.9 1.9 2.5 2.8 1.5 0.9 4 0.9 2.4 0 3.9-0.9 1.6-0.9 2.5-2.8 1-2 1.4-5.1 0.4-3.2 0.4-7.8 0-9.1-1.8-12.7-1.6-3.7-6.4-3.7-2.5 0-4 0.9-1.6 0.8-2.5 2.7-0.9 1.9-1.4 5.1-0.4 3.2-0.4 7.7z"/>
	<path id="is Bob     Wrong ?" class="s5" aria-label="is Bob     Wrong ?"  d="m403.4 104.6v11.7q0.8 1.5 3.3 2.4 2.5 0.8 4.6 0.8 2.5 0 4-1.2 1.5-1.3 2.4-3.3 0.9-2.1 1.2-4.8 0.3-2.7 0.3-5.6 0-2.9-0.3-5.5-0.3-2.6-1.2-4.6-0.9-1.9-2.5-3-1.5-1.1-4-1.1-2.4 0-3.9 1.1-1.5 1.1-2.4 3-0.9 2-1.2 4.6-0.3 2.6-0.3 5.5zm20.3-32.2q12.4 0 19.4 8.1 7 8 7 23.5 0 15.6-7.3 23.7-7.3 8.1-20.1 8.1-4.6 0-8.1-0.8-3.4-0.9-6.1-2.2-2.7-1.3-4.9-3.1-2.2-1.7-4.4-3.5h-0.7l-1.9 7.8h-23v-53.6q0-3.1-2-4.6-2-1.5-4.5-1.5h-1.2v-20.1h37.5v20.6 9.9h0.8q0.8-2.3 2.3-4.5 1.4-2.2 3.8-4 2.3-1.7 5.6-2.7 3.3-1.1 7.8-1.1z"/>
	<path id="is Bob     Wrong ?" class="s6" aria-label="is Bob     Wrong ?"  d="m695.3 134l-10.8-29-10.3 29h-24.1l-20.9-53.6q-0.6-1.7-1.2-2.8-0.5-1.1-1.5-1.9-0.9-0.8-2.4-1.1-1.4-0.3-3.8-0.3v-20.1h45.3v20.1q-2.8 0-4.1 1.4-1.2 1.3-0.3 4l7.9 26.3h0.4l7.1-22.4-1.1-3.2q-1.2-3.3-2.3-4.7-1-1.4-3.6-1.4v-20.1h43v20.1q-4.1 0-5.1 1.4-0.9 1.3 0 4l6.8 26.3h0.4l8.1-26.3q1.7-5.4-6.2-5.4v-20.1h31.5v20.1q-2.3 0-3.8 0.3-1.5 0.3-2.4 1.1-0.9 0.7-1.5 1.9-0.5 1.1-1.2 2.8l-19.9 53.6z"/>
	<path id="is Bob     Wrong ?" class="s7" aria-label="is Bob     Wrong ?"  d="m753.7 74.3h32.2l-1 14.9h1q1.8-8.6 6.2-13 4.5-4.4 11.5-4.4 4.2 0 7.2 1.4 3 1.3 4.9 3.5 1.8 2.2 2.6 5.2 0.8 2.8 0.8 5.9 0 2.6-0.7 5.1-0.8 2.5-2.5 4.5-1.6 2-4.3 3.2-2.7 1.2-6.6 1.2-5.4 0-8.5-2.8-3.1-2.7-3.1-6.6 0-1.9 0.4-3.2 0.5-1.4 0.9-2.2 0.5-0.9 0.6-1.2 0.2-0.4-0.3-0.4-1.2 0-2.5 2.6-1.3 2.6-1.3 8.2v12.4q0 2.9 0.9 4.1 1.1 1.2 3.9 1.2h3.3v20.1h-45.6v-20.1h3.2q2.2 0 3.3-1.4 1.2-1.5 1.2-3.5v-10.3q0-2.5-1.5-3.4-1.5-0.9-3.4-0.9h-2.8z"/>
	<path id="is Bob     Wrong ?" class="s8" aria-label="is Bob     Wrong ?"  d="m822.5 104q0-7.9 2.8-14 2.7-6 7.8-10 5.2-4 12.4-6.1 7.2-2.1 16.1-2.1 8.9 0 16.1 2.1 7.2 2.1 12.3 6.1 5.1 4 7.8 10 2.8 6.1 2.8 14 0 7.9-2.8 14-2.7 6-7.8 10.1-5.1 4.1-12.3 6.2-7.2 2-16.1 2-8.9 0-16.1-2-7.2-2.1-12.4-6.2-5.1-4.1-7.8-10.1-2.8-6.1-2.8-14zm30.8 0q0 4.6 0.4 7.8 0.4 3.1 1.4 5.1 0.9 1.9 2.5 2.8 1.5 0.9 4 0.9 2.4 0 3.9-0.9 1.6-0.9 2.5-2.8 1-2 1.4-5.1 0.4-3.2 0.4-7.8 0-9.1-1.8-12.7-1.7-3.7-6.4-3.7-2.5 0-4 0.9-1.6 0.8-2.5 2.7-1 1.9-1.4 5.1-0.4 3.2-0.4 7.7z"/>
	<path id="is Bob     Wrong ?" class="s9" aria-label="is Bob     Wrong ?"  d="m957.3 134v-34.6q0-2.1-0.6-3.4-0.4-1.3-1.3-1.9-0.7-0.7-1.7-1-1-0.2-1.9-0.2-3.5 0-5.2 2.1-1.8 2-1.8 5.8v7.8q0 2.9 1 4.1 1 1.2 3.9 1.2h2.9v20.1h-45.3v-20.1h3.2q2.2 0 3.4-1.4 1.2-1.5 1.2-3.5v-10.3q0-2.5-1.6-3.4-1.4-0.9-3.3-0.9h-2.9v-20.1h32.2l-1.1 14.9h0.9q1.2-8.4 7.3-12.9 6.1-4.5 16.6-4.5 7.5 0 12.1 2.1 4.7 2.2 7.2 5.4 2.6 3.2 3.6 7 0.9 3.7 0.9 7.1v15.2q0 2.9 1 4.1 1 1.2 3.9 1.2h2.9v20.1z"/>
	<path id="is Bob     Wrong ?" class="s10" aria-label="is Bob     Wrong ?"  d="m1077.7 143.9q0 9.2-10.7 14.1-10.5 4.8-30.6 4.8-7.2 0-14.1-0.2-6.9-0.2-12.2-1.4-5.3-1.2-8.6-3.9-3.2-2.7-3.2-7.5 0-3.9 2.5-6.4 2.5-2.5 5.4-4-3.6-2.1-4.9-4.7-1.2-2.6-1.2-5.7 0-3.7 2.7-7 2.6-3.4 7.6-6.6-4.9-3.2-7.5-7.8-2.6-4.7-2.6-11 0-6.1 2.6-10.7 2.5-4.6 7.3-7.7 4.8-3.1 11.4-4.7 6.6-1.7 14.8-1.7 8.8 0 15.9 1.9 7.2 1.9 12.2 5.8 1-1.3 2.6-2.6 1.5-0.9 3.6-1.8 2.2-0.8 5.3-0.8h5v20.1h-3.6q-2.3 0-3.5 1.3-1.2 1.2-1.4 2.4-1.9 11.5-11.1 17.5-9.2 6-25 6-8.9 0-16.1-1.9-1.1 0.8-1.1 1.9 0 2.1 2.5 3 2.5 0.8 6.6 1.2 4.1 0.2 9.4 0.2 5.2-0.1 10.7 0.1 5.5 0.3 10.8 1 5.3 0.8 9.4 2.7 4.1 2 6.6 5.4 2.5 3.4 2.5 8.7zm-48.9-47.3q0 5.6 1.6 8.7 1.6 3.1 6 3.1 4.5 0 6.1-3.1 1.6-3.1 1.6-8.7 0-5.6-1.6-8.5-1.6-2.9-6.1-2.9-4.4 0-6 2.9-1.6 2.9-1.6 8.5zm10.1 48.1q-5.8 0-10.6-0.3-4.7-0.3-8.5-0.9-0.5 1-0.5 1.9 0 3.9 4.2 5.2 4.2 1.2 11.1 1.2 9.2 0 13.5-1.1 4.2-1.1 4.2-3.2 0-1-1.2-1.5-1.2-0.6-3.2-0.9-1.9-0.3-4.3-0.4-2.4 0-4.7 0z"/>
	<path id="is Bob     Wrong ?" class="s11" aria-label="is Bob     Wrong ?"  d="m1181.8 74.2q0 5-2 8.6-1.9 3.7-5 6.4-2.9 2.6-6.3 4.6-3.4 2-6.4 3.8-3 1.9-4.9 3.8-2 1.9-2 4.3h-15.3q0-4.3 0.9-7.6 0.9-3.3 2.2-5.8 1.4-2.5 3-4.5 1.6-2.1 2.9-4.2 1.3-2 2.2-4.2 0.9-2.1 0.9-4.9 0-2.8-1.2-4.8-1.2-2-3.2-3-1.9-1-4.4-1-2.5 0-4.9 1.3 3.3 0.9 5.2 3.2 1.9 2.2 1.9 6.3 0 1.9-0.9 3.7-0.8 1.7-2.5 3.2-1.5 1.4-4 2.3-2.4 0.8-5.5 0.8-2.4 0-4.8-0.6-2.5-0.6-4.5-2.1-1.9-1.6-3.2-4.2-1.3-2.7-1.3-6.5 0-4.8 2.4-8.5 2.4-3.8 6.6-6.3 4.3-2.6 10.2-3.9 6-1.3 13.1-1.3 15.4 0 23.1 5.5 7.7 5.5 7.7 15.6zm-47.9 48.4q0-2.8 1.1-5.3 1.1-2.6 3-4.4 1.8-1.9 4.3-3 2.5-1.1 5.4-1.1 2.7 0 5.3 1.1 2.5 1.1 4.4 3 1.8 1.8 2.9 4.4 1.2 2.5 1.2 5.3 0 2.8-1.2 5.3-1.1 2.5-2.9 4.4-1.9 1.8-4.4 2.9-2.6 1.1-5.3 1.1-2.9 0-5.4-1.1-2.5-1.1-4.3-2.9-1.9-1.9-3-4.4-1.1-2.5-1.1-5.3z"/>
	<path id="Shape 1" class="s2" d="m464 138v-10l4-13 4-6 4-6 7-7 5-5 7.3-5.1 7.7-4.9 7-4 8-3 10-3 9-1 12-2h9 9 7l6 2 8 3 5 3 5 6 5 7 3 7 2 8v8l-2 6-1 6-2 5v6 4 2l-4 1-3-3v-11.2l4.4-13.5 0.6-11.9-1.5-7.4-5.6-7.9-4.7-6.3-17.2-7.5-19 1.1-20.2 2.4-18.7 4.2-10.1 6.5-11.2 8.4-9.6 7.3-7.9 12.2-3.4 5.7-3.2 17.5"/>
	<path id="Layer 7" class="s2" d="m502.4 105.9l-1.4 1.1v2c0 0-0.8 1.8 0 3 0.8 1.2 2.4 2.8 3 3 0.6 0.2 2.3 0.2 3 0 0.7-0.2 1.7-2.9 2-3 0.3-0.1 1-3 1-3v-4c0 0-1.2-2.3-2.3-2.5-2.6-0.5-3.2 0-3.4 0.3-0.5 0.5 2.2 1.3 2.6 2.1 0.2 0.3 0.5 2.9 0.3 3.9-0.3 2.3-0.9 4.4-1.9 4.5-0.7 0.1-2-0.4-2.1-2.1-0.1-1.9 0.9-5 0.9-5z"/>
	<path id="Layer 8" class="s2" d="m557 102v2l2.1-0.7c0 0 1.2-0.2 1.9 0 0.7 0.2 0.6 1.5 0.9 2.6 0.5 2.2 0.1 2.1 0.1 2.1l-2 1c0.3-0.4-4-3-4-3l-1 2c0 0 2.2 2.9 4 3 1.8 0.1 4.6-3 4.5-2.9-0.1 0.1 0.5-3.1 0.5-3.1l-2-4h-3z"/>
	<path id="Layer 9" class="s2" d="m515.6 126.8c0 0 1.7 18.5 17.3 4.3 2-1.9 4.4-3.4 2.3-2.6-3.4 1.3-2.4 2.3-9 5.2-4 1.7-8.5-1.5-9.2-7.7"/>
</svg>
