<?xml version="1.0" encoding="UTF-8"?>
<!-- Generator: Adobe Illustrator 23.0.4, SVG Export Plug-In . SVG Version: 6.00 Build 0)  -->
<svg version="1.1" id="Layer_1" xmlns="http://www.w3.org/2000/svg" xmlns:xlink="http://www.w3.org/1999/xlink" x="0px" y="0px" viewBox="0 0 864 864" style="enable-background:new 0 0 864 864;" xml:space="preserve">
<style type="text/css">
	.st0{fill:#22B573;}
	.st1{fill:#C7B299;}
	.st2{fill:#FFFFFF;}
	.st3{fill:#736357;}
	.st4{fill:#42210B;}
</style>
<g>
	<path class="st0" d="M356.9,209.6c3.8-13.9,14-21.9,23.3-30.8c-13.7,3.7-22.3,13-28.1,26.3c-3.2-8.9,1-23,10.6-28.8   c4.7-2.8,9.9-5,15.1-6.9c5.8-2.1,11.9-3.4,18.9-5.4c-1,4.1-1.7,7.7-2.7,11.1c-2.8,9.8-5.7,19.5-13.5,26.8c-4.8,4.5-10.4,7.3-17,8   C361.4,210.3,359.2,209.8,356.9,209.6z"/>
	<path class="st0" d="M528.2,249.3c5.6,9.8,12.2,18.3,24.1,21.1c-7.8-7.3-16.2-14.1-19.5-25.9c2.2-0.1,4.4-0.6,6.4-0.3   c8.4,1.2,14.9,5.7,18.6,13.1c3.9,7.8,6.4,16.3,8.8,25c-11.5-2.6-23.1-3.5-31.8-11.8C528.8,264.7,527.1,257.5,528.2,249.3z"/>
	<path class="st0" d="M549.5,173.9c-2.9,0-5.5,0.4-8.1-0.1c-7.4-1.3-13.2-5.6-16.4-12.1c-4-7.9-6.6-16.5-9.2-25.4   c11.8,2.6,23.8,3.4,32.5,12.4c5.3,5.4,7.3,13.2,5.6,21.5c-5.1-11.1-12.1-19.2-23.7-22.2C537.8,155.5,546.4,162.2,549.5,173.9z"/>
</g>
<g>
	<path class="st1" d="M412.8,490.3c7.2-4.8,13.6-9.6,20.5-13.5c31.3-17.6,67.6-8.7,87.6,21.3c9.2,13.7,14,28.7,12.1,45.5   c-1.4,13.1-8.1,23-17.9,31c-3.6,2.9-3.3,5-1.4,9c4.2,8.8,7.5,18,11,27.2c1.4,3.7,0,6.8-3,9.6c-25.1,23.5-54.7,37.3-88.7,41.5   c-31.4,3.8-61.7-0.7-90.4-14.4c-32-15.2-56.2-38.6-71.5-70.7c-1.4-3-1.3-6.9-1-10.4c0.8-8.2,3.9-15.8,10-21.3   c4.9-4.5,5.5-8.9,4.3-15.2c-4.3-22.6,1.6-42.6,18.9-57.9c29.5-26.2,76.5-26.4,103.1,10.6C408.4,485.2,410.7,487.7,412.8,490.3z    M332.2,544.4c0,9.2,4.5,15.8,11.7,17c6.3,1,13-3.4,15.6-10.9c2.3-6.6,1.3-13-3.2-18.5c-3.4-4.3-9.1-5.6-14.2-3.8   C336.4,530.3,332.2,537.1,332.2,544.4z M471.2,539.5c-4.9-2.7-9.4-1.9-13.8,1.2c-8.3,5.9-9.1,21.1-1.5,27.8   c5.3,4.7,12.5,5,17.1-0.3C476.3,564.6,477.1,542.7,471.2,539.5z M403.7,583.6c5.1-2.8,11.2-5.3,16.4-9c6.9-4.8,6.4-9.7-1.1-13.8   c-8.8-4.8-18.3-5.6-28.1-3.2c-1.7,0.4-3.2,1.6-4.7,2.6c-2.6,1.8-3.3,4.3-1.3,6.7c4.2,5,8.5,9.8,13,14.5   C399.1,582.4,401,582.6,403.7,583.6z M376.5,623.6c6.4,12.6,19.6,18.1,30.5,13.9c7.5-2.9,13.7-15.1,11.4-23.7   C408.2,631,394.3,633.4,376.5,623.6z M398.9,592.5c-6.8,7.4-7.3,19.9-1.2,25.6C398.1,609.8,398.5,601,398.9,592.5z"/>
	<path class="st1" d="M600.3,514.4c-9.4-8.2-19.8-12.7-32.2-8.6c-3.9,1.3-5.5,0.9-6.5-3.4c-1-4.6-3.1-9-4.3-13.5   c-0.4-1.5,0.2-4.1,1.2-4.8c15.3-10.2,31.2-11.8,47.7-2.9c12.8,6.9,19.1,17.6,18.1,32.2c-1,15.3-6.1,28.8-19.3,37.9   c-11.2,7.7-27.1,7-37.5-1.8c-1.3-1.1-2.2-3.3-2.2-5c-0.4-9-0.7-17.9-0.4-26.9c0-1.7,2.2-4.3,3.9-5c9.2-3.8,18.5-3.4,27.7,0.3   C597.7,513.4,599,513.9,600.3,514.4z"/>
	<path class="st1" d="M225.7,485.9c8.4-1.7,16.8-2.8,25.2,0.2c1.4,0.5,2.7,1.1,4.1,1.7c4.7,2,6.3,4.9,4.8,10.4   c-2,7-2.9,14.4-3.8,21.7c-0.4,3.8-2.1,5.8-5.5,7.2c-19.4,8-38.9-0.9-45.7-21c-3.6-10.5-4-21.2-1.2-31.9c2.5-9.8,8.9-16.1,17.9-20.2   c17.1-7.7,36.1-4.7,49.6,8.2c1,1,1.6,3.6,1.1,4.9c-2,5-4.8,9.7-7,14.6c-1.6,3.6-3.6,2.1-5.9,1.1   C248.3,477.7,235.1,478.8,225.7,485.9z"/>
	<path class="st1" d="M289.8,305.7c-0.2-20.5,11.6-35.5,28.8-39c8.8-1.8,13.9,0.1,17.8,8.1c7.4,14.9,6.4,30.2,0.2,45.1   c-2.6,6.2-6.4,12.2-10.8,17.2c-6.3,7-13.1,7-20.5,1.3C293.8,329.5,290.6,316.9,289.8,305.7z"/>
	<path class="st1" d="M546.3,355.5c1-14.6,4.7-27.7,14.7-38.5c6-6.5,12-7.4,19.8-3.1c16.7,9.2,23.3,29.8,15.1,47.5   c-4.9,10.5-11.4,19.5-22.4,24.3c-10,4.4-18.5,1.4-22.3-8.9C548.7,370,547.8,362.6,546.3,355.5z"/>
	<path class="st1" d="M551.2,697.3c1.8,1.1,3.9,1.9,5.3,3.4c2.3,2.5,4.8,5.3,5.7,8.4c0.7,2.4-0.1,6.3-1.8,7.9   c-1.8,1.8-5.8,2.9-8.2,2.2c-5-1.4-9.7-4.3-14.6-6.6c0.6,3.4,1.4,6.7,1.7,10c0.4,4.7-0.5,9.2-5.4,11c-4.9,1.8-8-1.7-10.7-5   c-2.7-3.4-5.2-7-8.3-11.2c-1.2,3.1-2,5.4-3.1,7.5c-1.8,3.5-4.2,6.7-8.5,6.2c-4.6-0.4-7.2-4-7.1-8.1c0.2-9.4,1-18.9,2.2-28.2   c0.5-4.1,4-3.4,7-2.3c8.4,3.2,8.4,3.2,8.6-5.7c0.1-5.8,1.2-6.6,6.9-4.5c0.9,0.3,1.8,0.7,2.8,0.9c4.9,1.5,6.5,0.3,5.9-4.8   c-0.4-3.1-1.1-6.1-1.4-9.2c-0.4-3.8,1.8-5.9,5.3-4.9c11.8,3.5,23.2,8.1,32.3,16.7c4.8,4.5,2.7,11.2-3.7,12.9c-3,0.8-6.1,1-9.1,1.5   C552.3,696.1,551.7,696.7,551.2,697.3z"/>
	<path class="st1" d="M248,679.2c-2.9,3.3-5.5,6.9-8.6,9.9c-3.1,2.9-6.8,5.6-11.4,3.1c-3.8-2.1-5.1-7.2-3.2-12.8   c1-3,2.5-5.9,3.7-8.8c-4.9,1.5-9.6,3.2-14.4,4.3c-3.9,0.9-7.7,0.3-9.8-3.6c-2.2-4.1-1.2-8.1,2.1-11.2c3-2.8,6.4-5.3,10.3-8.4   c-3.4-1.1-6.4-1.4-8.5-2.9c-2.3-1.6-5.2-4.2-5.5-6.6c-0.3-2.4,1.6-6.2,3.8-7.6c10.2-6.4,21.6-9.2,33.4-10.5c4.3-0.5,6,1.9,4.8,6.2   c-0.9,3.1-2.2,6.2-3.2,9.3c-1.2,3.8,0.5,5.2,4.2,4.9c9.8-0.7,9.9-0.7,9.2,9.1c-0.3,4.3,1.3,5.3,5.1,4c1.4-0.5,2.8-0.8,4.3-1.1   c3.4-0.6,5.6,0.8,5.3,4.4c-0.6,8.8-1.2,17.6-2.3,26.4c-0.6,4.3-3.3,7.6-8.2,7.8c-4.7,0.1-6.4-3.3-7.6-7.1c-0.8-2.4-1.1-5-1.6-7.5   C249.2,680,248.6,679.6,248,679.2z"/>
</g>
<g>
	<path d="M332.2,544.4c0-7.4,4.2-14.2,9.9-16.2c5.1-1.8,10.8-0.4,14.2,3.8c4.5,5.5,5.5,11.9,3.2,18.5c-2.6,7.5-9.3,12-15.6,10.9   C336.8,560.3,332.2,553.6,332.2,544.4z"/>
	<path d="M473.1,568.3c-4.8,5.1-11.9,4.9-17.1,0.3c-7.6-6.7-6.8-22,1.5-27.8c4.4-3.1,8.9-3.9,13.8-1.2   C477.1,542.7,478,563,473.1,568.3z"/>
	<path d="M403.7,583.6c-2.7-1.1-4.6-1.2-5.6-2.3c-4.5-4.7-8.9-9.5-13-14.5c-2-2.4-1.3-4.9,1.3-6.7c1.5-1,3-2.2,4.7-2.6   c9.7-2.4,19.2-1.6,28.1,3.2c7.5,4.1,7.9,8.9,1.1,13.8C414.9,578.3,408.9,580.9,403.7,583.6z M409.9,560.2   c-6.5-2.6-12.4-2.6-17.9-0.8c-1.7,0.6-4.1,3.5-3.9,5c0.6,3.2,3.5,3.1,6.3,2.1c4.4-1.5,8.9-2.9,13.3-4.4   C408.3,562,408.7,561.3,409.9,560.2z"/>
	<path d="M376.5,623.6c17.8,9.9,31.7,7.4,42-9.8c2.2,8.6-4,20.8-11.4,23.7C396.1,641.7,382.9,636.2,376.5,623.6z"/>
	<path d="M398.9,592.5c-0.4,8.5-0.8,17.3-1.2,25.6C391.6,612.4,392.1,599.9,398.9,592.5z"/>
</g>
<path class="st2" d="M408.9,560.2c-1.1,1.1-1.6,1.8-2.2,2c-4.4,1.5-8.9,2.9-13.3,4.4c-2.8,0.9-5.7,1-6.3-2.1c-0.3-1.4,2.1-4.4,3.9-5  C396.5,557.6,402.3,557.6,408.9,560.2z"/>
<g>
	<g>
		<path class="st3" d="M637.5,469c-13.2-15.2-30.8-19.1-49.6-15.9c-12.9,2.2-25.3,7.4-37.9,11.4c-2.4,0.8-4.5,1.9-6.4-1.1    c-9.5-14.8-21.9-26.9-35.8-37.5c-2.5-1.9-2.6-3.8-0.8-5.7c3.6-3.7,7-8,11.3-10.6c10.6-6.4,22.7-8.1,34.8-8.9    c10.4-0.7,21.2-0.5,30.2-6.8c15.8-11.2,23.2-27.8,24.4-46.2c1.4-22.1-12-36.9-29.8-47.8c-7.3-4.5-14.6-3.2-20.5,3.1    c-4,4.2-7.4,9.1-10.6,14.1c-5.2,8.1-12,14.2-20.7,18.3c-18.6,8.9-35.4,19.9-47,37.5c-0.6,0.9-3.2,1.5-4.3,1    c-7.2-3.4-14.3-7.2-21.5-10.6c-2.7-1.3-2.7-2.7-1.6-5c10.3-21.4,8.3-43,1-64.5c-4-11.8-8.9-23.3-12.4-35.2    c-1.6-5.2-2.2-10.8-2.7-16.3c-0.9-3.5-2.4-6.8-3.5-10.2c0,0,0.1,0,0.1,0c-5.2-14.9,7.7-18.2,16.7-19.1c1.6-0.2,3.1,0,4.3,0.3    c1.6,0.7,3.1,1.7,4.4,3c2.8,3.5-1,20-1.2,20.8c-0.9,3-1.9,5.9-2.7,8.9c-1.8,6.7,2.1,11,9,10c9.4-1.4,13.6-8,15.5-16.3    c0.4-1.6,2.3-9.2,2.4-9.9c1.3-10.8-4.7-22.8-14.2-28.2c-14.7-8.5-38.5-10.5-53.8,10.3c0,0,0,0,0,0c0,0.1-0.1,0.1-0.1,0.2    c-0.1,0.3-0.3,0.7-0.4,1c0,0.1-1.2,3.5-1.6,5.2c0,0,0,0.1,0,0.1c-0.1,0.4-0.2,0.8-0.2,1.1c0,0.1,0,0.2-0.1,0.3    c-0.1,0.4-0.1,0.7-0.2,1.1c0,0.1,0,0.2-0.1,0.3c-0.1,0.4-0.1,0.7-0.2,1.1c0,0.1,0,0.2,0,0.2c-0.2,1.7-0.4,3.4-0.6,5.1    c0,0,0,0.1,0,0.1c0,0.4-0.1,0.8-0.1,1.3c0,0,0,0.1,0,0.1c-0.2,2.3-0.3,4.6-0.5,6.9c0.1,0.4,0.2,0.7,0.2,1.2    c0.5,4.4,0.4,9.1,2.1,13c5.1,12,10.2,24.1,16.5,35.5c12.5,22.7,15.2,45.4,2.8,68.8c-0.9,1.8-3.3,3.9-5.2,4    c-8.3,0.5-16.6,0.3-25,0.5c-2.9,0.1-4.6-0.9-5.4-3.8c-1-3.6-2.2-7.2-3.6-10.7c-5.7-14.7-15.2-26.7-26.6-37.3    c-9-8.5-14.9-18.5-17.6-30.6c-1.1-5-3.2-10-5.5-14.6c-2.8-5.6-8.2-8.5-14.2-7.9c-17.8,1.9-32.1,10.8-41.9,25.3    c-9.5,14.2-7.4,30.4-3.9,46.1c3.1,13.9,11.8,23,24.9,28.3c4.9,2,9.7,4,14.5,6.1c10.3,4.6,19.7,10.2,27.2,18.9    c2.1,2.4,2.1,4.2,0.2,6.9c-4.5,6.4-8.4,13.3-12.9,19.7c-2,2.8-4.6,5.6-7.5,7.2c-12.5,6.7-23.8,14.9-34.2,24.6    c-8.9,8.4-8.7,8.2-19.1,2.2c-15.5-9-31.5-16.1-50.1-14.6c-18.3,1.5-31.9,10-39.7,26.9c-10.4,22.7-7.7,45,3.4,66.6    c6.1,11.8,15.7,20.1,28.3,24.4c10.7,3.7,21.7,3.2,32.5,1.2c4.1-0.7,4.9,0.6,5.9,4c3.3,11.8,6.8,23.5,10.7,35.1    c1.1,3.3,0.5,4.7-2.5,6c-4.7,2-9.3,4.1-13.8,6.4c-9.6,5-17.8,11.5-23.4,21.1c-1.1,1.9-3.6,3.1-5.7,4.2c-5.7,2.9-11.7,5.2-17.1,8.4    c-9.7,5.9-10.3,15.5-1.9,23c0.6,0.5,0.9,1.2,1.3,1.8c-0.2,0.6-0.3,0.9-0.5,1.2c-5.4,5.2-7.4,11.2-4.2,18.2    c3.1,6.8,9.2,7.2,15.5,6.5c3.7-0.4,4.1,1.6,4,4.4c-0.1,5.7,1.8,10.5,7.2,12.9c5.3,2.4,10.2,0.7,14.7-2.7c1.6-1.2,3.3-2.4,5.2-3.8    c0.9,1.3,1.5,2,2,2.8c5.7,8.9,15.9,8.8,21.4-0.2c1.2-2,2.5-4,3.1-6.1c2.3-7.7,6.3-13.8,12.4-19.6c8.3-7.9,14.8-17.9,21.8-27.2    c2.5-3.3,4.3-3.9,7.9-1.3c29.7,21.6,63.4,30.3,99.6,31.1c14.5,0.3,28.7-1.8,42.6-5.7c3.8-1.1,5.7-0.1,7.4,3.3    c3.2,6.6,6.5,13.2,10.1,19.6c3.4,6,7.3,11.6,10.8,17.4c1.4,2.4,2.9,4.9,3.7,7.5c1.8,5.7,2.4,11.9,4.8,17.4    c3.5,7.7,12.1,9.3,17.8,3.4c4-4,6-3.2,9.1,0.6c3.5,4.3,8.1,6.6,13.9,5.1c5.6-1.5,8.5-5.6,9.3-10.9c0.7-4,2-4.7,5.8-3.7    c7.7,2,12.4,0.3,15.9-5.1c3.5-5.3,2.8-10.6-0.5-15.7c-1.2-1.9-2.7-3.7,0.4-5.1c9-4.2,10.6-15.1,0.9-23.4    c-4.8-4.1-10.5-7.3-15.6-11.1c-1.7-1.3-3.5-3.1-4.3-5c-4-10.5-11.2-18.4-19.9-25c-4.8-3.7-4.9-3.8-0.7-8    c13.9-13.8,24.7-29.7,31.4-48.1c4.4-11.9,4.3-11.7,16.4-8.2c20.3,5.9,39.3,3.9,54.5-12.1c14.4-15.1,21.3-33.6,20.9-54.5    C649.1,490.2,645.8,478.5,637.5,469z M560.9,317c6-6.5,12-7.4,19.8-3.1c16.7,9.2,23.3,29.8,15.1,47.5    c-4.9,10.5-11.4,19.5-22.4,24.3c-10,4.4-18.5,1.4-22.3-8.9c-2.5-6.8-3.3-14.2-4.9-21.3C547.3,340.9,551,327.8,560.9,317z     M336.6,319.9c-2.6,6.2-6.4,12.2-10.8,17.2c-6.3,7-13.1,7-20.5,1.3c-11.4-8.9-14.6-21.5-15.5-32.7c-0.2-20.5,11.6-35.5,28.8-39    c8.8-1.8,13.9,0.1,17.8,8.1C343.7,289.7,342.8,305,336.6,319.9z M269.6,660.9c-0.6,8.8-1.2,17.6-2.3,26.4    c-0.6,4.3-3.3,7.6-8.2,7.8c-4.7,0.1-6.4-3.3-7.6-7.1c-0.8-2.4-1.1-5-1.6-7.5c-0.6-0.4-1.2-0.8-1.8-1.3c-2.9,3.3-5.5,6.9-8.6,9.9    c-3.1,2.9-6.8,5.6-11.4,3.1c-3.8-2.1-5.1-7.2-3.2-12.8c1-3,2.5-5.9,3.7-8.8c-4.9,1.5-9.6,3.2-14.4,4.3c-3.9,0.9-7.7,0.3-9.8-3.6    c-2.2-4.1-1.2-8.1,2.1-11.2c3-2.8,6.4-5.3,10.3-8.4c-3.4-1.1-6.4-1.4-8.5-2.9c-2.3-1.6-5.2-4.2-5.5-6.6c-0.3-2.4,1.6-6.2,3.8-7.6    c10.2-6.4,21.6-9.2,33.4-10.5c4.3-0.5,6,1.9,4.8,6.2c-0.9,3.1-2.2,6.2-3.2,9.3c-1.2,3.8,0.5,5.2,4.2,4.9c9.8-0.7,9.9-0.7,9.2,9.1    c-0.3,4.3,1.3,5.3,5.1,4c1.4-0.5,2.8-0.8,4.3-1.1C267.7,655.9,269.9,657.2,269.6,660.9z M265.1,481.7c-1.6,3.6-3.6,2.1-5.9,1.1    c-10.8-5.1-24.1-3.9-33.5,3.1c8.4-1.7,16.8-2.8,25.2,0.2c1.4,0.5,2.7,1.1,4.1,1.7c4.7,2,6.3,4.9,4.8,10.4c-2,7-2.9,14.4-3.8,21.7    c-0.4,3.8-2.1,5.8-5.5,7.2c-19.4,8-37.9-0.9-44.7-21c-3.6-10.5-5-21.2-2.2-31.9c2.5-9.8,8.9-16.1,17.9-20.2    c17.1-7.7,36.1-4.7,49.6,8.2c1,1,1.6,3.6,1.1,4.9C270,472,267.3,476.7,265.1,481.7z M523.5,683.2c4.9,1.5,6.5,0.3,5.9-4.8    c-0.4-3.1-1.1-6.1-1.4-9.2c-0.4-3.8,1.8-5.9,5.3-4.9c11.8,3.5,23.2,8.1,32.3,16.7c4.8,4.5,2.7,11.2-3.7,12.9c-3,0.8-6.1,1-9.1,1.5    c-0.5,0.6-1.1,1.2-1.6,1.8c1.8,1.1,3.9,1.9,5.3,3.4c2.3,2.5,4.8,5.3,5.7,8.4c0.7,2.4-0.1,6.3-1.8,7.9c-1.8,1.8-5.8,2.9-8.2,2.2    c-5-1.4-9.7-4.3-14.6-6.6c0.6,3.4,1.4,6.7,1.7,10c0.4,4.7-0.5,9.2-5.4,11c-4.9,1.8-8-1.7-10.7-5c-2.7-3.4-5.2-7-8.3-11.2    c-1.2,3.1-2,5.4-3.1,7.5c-1.8,3.5-4.2,6.7-8.5,6.2c-4.6-0.4-7.2-4-7.1-8.1c0.2-9.4,1-18.9,2.2-28.2c0.5-4.1,4-3.4,7-2.3    c8.4,3.2,8.4,3.2,8.6-5.7c0.1-5.8,1.2-6.6,6.9-4.5C521.7,682.6,522.6,683,523.5,683.2z M533.1,543.5c-1.4,13.1-8.1,23-17.9,31    c-3.6,2.9-3.3,5-1.4,9c4.2,8.8,7.5,18,11,27.2c1.4,3.7,0,6.8-3,9.6c-25.1,23.5-54.7,37.3-88.7,41.5c-31.4,3.8-61.7-0.7-90.4-14.4    c-32-15.2-56.2-38.6-71.5-70.7c-1.4-3-1.3-6.9-1-10.4c0.8-8.2,3.9-15.8,10-21.3c4.9-4.5,5.5-8.9,4.3-15.2    c-4.3-22.6,1.6-42.6,18.9-57.9c29.5-26.2,76.5-26.4,103.1,10.6c2,2.7,4.2,5.3,6.3,7.8c7.2-4.8,13.6-9.6,20.5-13.5    c31.3-17.6,67.6-8.7,87.6,21.3C530.1,511.8,534.9,526.7,533.1,543.5z M624.2,513.4c-1,15.3-6.1,28.8-19.3,37.9    c-11.2,7.7-27.1,7-37.5-1.8c-1.3-1.1-2.2-3.3-2.2-5c-0.4-9-0.7-17.9-0.4-26.9c0-1.7,2.2-4.3,3.9-5c9.2-3.8,18.5-3.4,27.7,0.3    c1.3,0.5,2.6,1,3.9,1.6c-9.4-8.2-19.8-12.7-32.2-8.6c-3.9,1.3-5.5,0.9-6.5-3.4c-1-4.6-3.1-9-4.3-13.5c-0.4-1.5,0.2-4.1,1.2-4.8    c15.3-10.2,31.2-11.8,47.7-2.9C618.9,488.2,625.2,498.8,624.2,513.4z"/>
	</g>
</g>
<g>
	<g>
		<path class="st4" d="M478.5,213.5c8.8,0.3,21.8,1.2,30.6,1.5c2.4,0.1,5.2-0.8,7.3-2.1c12.8-7.5,22.5-18.3,30.9-30.4    c2.9-4.2,5.8-8.4,9-12.3c2.3-2.7,4.9-5.5,7.9-7.2c1.8-1,4.8,0.3,7.2,0.6c-0.6,2-0.8,4.3-2,5.9c-4.9,6.7-10.3,13.1-15.2,19.8    c-5.7,7.8-11,15.8-16.5,23.8c-0.5,0.8-0.9,1.7-1.9,3.5c2.5,0.4,4.2,0.8,5.9,0.9c13.2,0.7,26.5,1.6,39.7,2    c8.6,0.3,14.8,3.9,18.1,11.8c2.5,5.9,4.8,11.8,6.8,17.9c1.6,4.9,0.1,6.4-4.9,5.6c-21.1-3.5-42.2-7.5-63.4-10.6    c-18.1-2.6-39.6-5.6-57.7-7.7c0-1.8,2.1-4.3,2-6C482.4,227.6,480.5,215.5,478.5,213.5z"/>
	</g>
	<g>
		<path class="st4" d="M455.9,213.5c-0.2,0-0.4,0-0.6-0.1c-6.9-4.2-43.9-1.4-44.3-1.8c-12.6,1.1-25.1,2-37.7,2.9    c-27.1,1.8-54.3,3.5-81.4,5.2c-8.3,0.5-16.7,0.9-25,1.6c-3.7,0.3-7.7,1.2-8.3,5.5c-0.9,6.9-1.1,14-1.3,21    c-0.1,2.8,1.7,4.2,4.6,3.6c3.7-0.7,7.3-1.6,11-2.4c44.3-8.5,89-13.3,133.9-15.9c0.9,0,2.2,0,2.3-0.1c-0.1,0,43.7-0.3,46-0.3    c0.7,0,3.5,0.6,4.9,0.2C462.4,225.6,461.9,215.7,455.9,213.5z"/>
	</g>
</g>
</svg>